<svg width="1952" height="1458" viewBox="0 0 1952 1458" fill="none" xmlns="http://www.w3.org/2000/svg">
<g opacity="0.5" filter="url(#filter0_f_1_31843)">
<path d="M1652 373.742V1084.26C1652 1124.99 1619.02 1158 1578.33 1158H373.665C336.991 1158 306.575 1131.17 300.947 1096.04C300.325 1092.21 300 1088.27 300 1084.26V373.742C300 333.011 332.981 300 373.665 300H1578.33C1582.34 300 1586.27 300.316 1590.1 300.939C1625.18 306.581 1652 337.024 1652 373.742Z" fill="#77939A"/>
</g>
<path d="M1524 210.291V945.359C1524 987.498 1489.85 1021.65 1447.72 1021.65H200.281C162.304 1021.65 130.808 993.89 124.981 957.549C124.337 953.584 124 949.511 124 945.359V210.291C124 168.151 158.151 134 200.281 134H1447.72C1451.87 134 1455.93 134.327 1459.9 134.971C1496.23 140.808 1524 172.304 1524 210.291Z" fill="url(#paint0_linear_1_31843)"/>
<mask id="mask0_1_31843" style="mask-type:alpha" maskUnits="userSpaceOnUse" x="124" y="134" width="1400" height="888">
<path d="M1524 210.291V945.359C1524 987.498 1489.85 1021.65 1447.72 1021.65H200.281C162.304 1021.65 130.808 993.89 124.981 957.549C124.337 953.584 124 949.511 124 945.359V210.291C124 168.151 158.151 134 200.281 134H1447.72C1451.87 134 1455.93 134.327 1459.9 134.971C1496.23 140.808 1524 172.304 1524 210.291Z" fill="url(#paint1_linear_1_31843)"/>
</mask>
<g mask="url(#mask0_1_31843)">
<path d="M1554 -101H87V1366H1554V-101Z" fill="white"/>
<path d="M1554 -101H87V1366H1554V-101Z" fill="#1BC47D" fill-opacity="0.3"/>
<g filter="url(#filter1_f_1_31843)">
<path d="M1531 339H221V1135H1531V339Z" fill="#00C5DF"/>
</g>
<g filter="url(#filter2_f_1_31843)">
<ellipse cx="1104.5" cy="926" rx="689.5" ry="458" fill="#907CFF"/>
</g>
<path style="mix-blend-mode:screen" opacity="0.1" d="M1488.66 578C1267.93 578 1089 756.937 1089 977.665C1089 1198.39 1267.93 1377.33 1488.66 1377.33C1709.39 1377.33 1888.32 1198.39 1888.32 977.665C1888.32 756.937 1709.39 578 1488.66 578ZM1488.66 1206.96C1362.03 1206.96 1259.37 1104.3 1259.37 977.665C1259.37 851.03 1362.03 748.372 1488.66 748.372C1615.29 748.372 1717.95 851.03 1717.95 977.665C1717.95 1104.3 1615.29 1206.96 1488.66 1206.96Z" fill="white"/>
<path style="mix-blend-mode:screen" opacity="0.1" d="M102.5 316C-58.4905 316 -189 446.51 -189 607.5C-189 768.49 -58.4905 899 102.5 899C263.49 899 394 768.49 394 607.5C394 446.51 263.49 316 102.5 316ZM102.5 774.737C10.1372 774.737 -64.7374 699.863 -64.7374 607.5C-64.7374 515.137 10.1372 440.263 102.5 440.263C194.863 440.263 269.737 515.137 269.737 607.5C269.737 699.863 194.863 774.737 102.5 774.737Z" fill="white"/>
<path style="mix-blend-mode:screen" opacity="0.1" d="M1506.5 353C1419.52 353 1349 423.515 1349 510.5C1349 597.485 1419.52 668 1506.5 668C1593.48 668 1664 597.485 1664 510.5C1664 423.515 1593.48 353 1506.5 353ZM1506.5 600.86C1456.6 600.86 1416.14 560.404 1416.14 510.5C1416.14 460.596 1456.6 420.14 1506.5 420.14C1556.4 420.14 1596.86 460.596 1596.86 510.5C1596.86 560.404 1556.4 600.86 1506.5 600.86Z" fill="white" fill-opacity="0.8"/>
<path style="mix-blend-mode:screen" opacity="0.1" d="M885.5 -185C754.333 -185 648 -78.6668 648 52.5C648 183.667 754.333 290 885.5 290C1016.67 290 1123 183.667 1123 52.5C1123 -78.6668 1016.67 -185 885.5 -185ZM885.5 188.757C810.247 188.757 749.243 127.753 749.243 52.5C749.243 -22.7531 810.247 -83.7574 885.5 -83.7574C960.753 -83.7574 1021.76 -22.7531 1021.76 52.5C1021.76 127.753 960.753 188.757 885.5 188.757Z" fill="white"/>
</g>
<path d="M226.752 307V253.36H249.432C253.128 253.36 256.296 253.984 258.936 255.232C261.576 256.48 263.592 258.28 264.984 260.632C266.376 262.936 267.072 265.744 267.072 269.056C267.072 271.408 266.424 273.664 265.128 275.824C263.832 277.936 261.696 279.712 258.72 281.152V275.68C261.552 276.784 263.736 278.104 265.272 279.64C266.808 281.176 267.864 282.856 268.44 284.68C269.016 286.456 269.304 288.328 269.304 290.296C269.304 295.576 267.552 299.68 264.048 302.608C260.544 305.536 255.672 307 249.432 307H226.752ZM237.912 297.28H250.728C252.984 297.28 254.784 296.632 256.128 295.336C257.472 294.04 258.144 292.36 258.144 290.296C258.144 288.184 257.472 286.48 256.128 285.184C254.784 283.888 252.984 283.24 250.728 283.24H237.912V297.28ZM237.912 273.52H250.224C251.952 273.52 253.32 273.04 254.328 272.08C255.384 271.072 255.912 269.752 255.912 268.12C255.912 266.488 255.384 265.192 254.328 264.232C253.32 263.224 251.952 262.72 250.224 262.72H237.912V273.52Z" fill="white"/>
<path d="M286.903 307L305.047 253.36H319.879L338.023 307H325.855L322.255 296.056H302.599L298.999 307H286.903ZM305.695 286.336H319.159L310.951 260.992H313.975L305.695 286.336Z" fill="white"/>
<path d="M357.997 307V253.36H366.565L395.365 291.304L390.757 292.384V253.36H401.917V307H393.277L364.981 268.768L369.157 267.688V307H357.997Z" fill="white"/>
<path d="M425.835 307V253.36H436.995V280.216L433.899 279.136L455.355 253.36H469.323L448.083 278.992L448.731 271.072L469.755 307H456.723L443.619 284.32L436.995 292.312V307H425.835Z" fill="white"/>
<defs>
<filter id="filter0_f_1_31843" x="0" y="0" width="1952" height="1458" filterUnits="userSpaceOnUse" color-interpolation-filters="sRGB">
<feFlood flood-opacity="0" result="BackgroundImageFix"/>
<feBlend mode="normal" in="SourceGraphic" in2="BackgroundImageFix" result="shape"/>
<feGaussianBlur stdDeviation="150" result="effect1_foregroundBlur_1_31843"/>
</filter>
<filter id="filter1_f_1_31843" x="-79" y="39" width="1910" height="1396" filterUnits="userSpaceOnUse" color-interpolation-filters="sRGB">
<feFlood flood-opacity="0" result="BackgroundImageFix"/>
<feBlend mode="normal" in="SourceGraphic" in2="BackgroundImageFix" result="shape"/>
<feGaussianBlur stdDeviation="150" result="effect1_foregroundBlur_1_31843"/>
</filter>
<filter id="filter2_f_1_31843" x="-45" y="8" width="2299" height="1836" filterUnits="userSpaceOnUse" color-interpolation-filters="sRGB">
<feFlood flood-opacity="0" result="BackgroundImageFix"/>
<feBlend mode="normal" in="SourceGraphic" in2="BackgroundImageFix" result="shape"/>
<feGaussianBlur stdDeviation="230" result="effect1_foregroundBlur_1_31843"/>
</filter>
<linearGradient id="paint0_linear_1_31843" x1="885" y1="83.5" x2="1731.5" y2="1542" gradientUnits="userSpaceOnUse">
<stop stop-color="#E3A504"/>
<stop offset="0.901156" stop-color="#49AEE7"/>
</linearGradient>
<linearGradient id="paint1_linear_1_31843" x1="299" y1="46.5" x2="1543.5" y2="1038" gradientUnits="userSpaceOnUse">
<stop stop-color="#2D80C4"/>
<stop offset="1" stop-color="#C42DBE"/>
</linearGradient>
</defs>
</svg>
